<svg xmlns="http://www.w3.org/2000/svg" width="500" height="500" viewBox="0 0 125 125">
    <rect width="100%" height="100%" fill="red"/>
    <circle r="8" cy="62" cx="63.5" fill="#fff"/>
    <g transform="translate(12,20)" fill="none" fill-rule="evenodd">
        <g stroke="#fff" stroke-width="6">
            <path d="m 10 30 c 20 -10 60 -10 80 0 c 15 8 15 12 0 20 c -20 10 -60 10 -80 0 c -15 -8 -15 -12 0 -20 z" fill="transparent" transform="translate(0,2)" />
            <path d="m 10 30 c 20 -10 60 -10 80 0 c 15 8 15 12 0 20 c -20 10 -60 10 -80 0 c -15 -8 -15 -12 0 -20 z" fill="transparent" transform="rotate(60,49,42)" />
            <path d="m 10 30 c 20 -10 60 -10 80 0 c 15 8 15 12 0 20 c -20 10 -60 10 -80 0 c -15 -8 -15 -12 0 -20 z" fill="transparent" transform="rotate(120,49,42)" />
        </g>
    </g>
</svg>
